<?xml version="1.0" encoding="iso-8859-1"?>
<!-- Generator: Adobe Illustrator 19.0.0, SVG Export Plug-In . SVG Version: 6.00 Build 0)  -->
<svg version="1.1" id="Layer_1" xmlns="http://www.w3.org/2000/svg" xmlns:xlink="http://www.w3.org/1999/xlink" x="0px" y="0px"
	 viewBox="0 0 512 512" style="enable-background:new 0 0 512 512;" xml:space="preserve">
<path style="fill:#A5A5A5;" d="M512,439.888L512,439.888c0,24.458-19.828,44.286-44.286,44.286H44.286
	C19.828,484.174,0,464.346,0,439.888l0,0c0-24.458,19.828-44.286,44.286-44.286h423.428C492.172,395.603,512,415.43,512,439.888z"/>
<path style="fill:#777777;" d="M169.739,450.96c0,4.586-3.738,8.303-8.348,8.303H72.348c-4.61,0-8.348-3.718-8.348-8.303
	s3.738-8.303,8.348-8.303h89.043C166.002,442.656,169.739,446.374,169.739,450.96z M439.652,442.656H272.696
	c-4.61,0-8.348,3.718-8.348,8.303s3.738,8.303,8.348,8.303h166.957c4.61,0,8.348-3.718,8.348-8.303S444.262,442.656,439.652,442.656
	z M234.852,442.656h-1.113c-4.61,0-8.348,3.718-8.348,8.303s3.738,8.303,8.348,8.303h1.113c4.61,0,8.348-3.718,8.348-8.303
	S239.462,442.656,234.852,442.656z M200.348,442.656h-1.113c-4.61,0-8.348,3.718-8.348,8.303s3.738,8.303,8.348,8.303h1.113
	c4.61,0,8.348-3.718,8.348-8.303S204.958,442.656,200.348,442.656z"/>
<path style="fill:#CCCAC4;" d="M478.609,130.126v243.098c0,24.588-19.934,44.522-44.522,44.522H77.913
	c-24.588,0-44.522-19.934-44.522-44.522V130.126c0-24.588,19.933-44.522,44.522-44.522h356.174
	C458.675,85.604,478.609,105.538,478.609,130.126z"/>
<path style="fill:#F2EFE2;" d="M434.087,395.603H77.913c-12.295,0-22.261-9.966-22.261-22.261V130.008
	c0-12.295,9.966-22.261,22.261-22.261h356.174c12.295,0,22.261,9.966,22.261,22.261v243.335
	C456.348,385.636,446.382,395.603,434.087,395.603z"/>
<path style="fill:#FFE6AE;" d="M411.826,163.163v177.024c0,6.147-4.983,11.13-11.13,11.13H111.304c-6.147,0-11.13-4.983-11.13-11.13
	V163.163c0-6.147,4.983-11.13,11.13-11.13h289.391C406.843,152.033,411.826,157.016,411.826,163.163z"/>
<path style="fill:#FCBB9A;" d="M411.826,163.104v177.142c0,6.114-4.983,11.071-11.13,11.071H111.304
	c-5.757,0-10.49-4.346-11.07-9.921l89.36-88.885h99.798c2.165,0,4.244-0.836,5.8-2.332l102.114-98.147h3.39
	C406.843,152.033,411.826,156.989,411.826,163.104z"/>
<path style="fill:#FC8059;" d="M511.93,36.633l-6.455,54.473c-0.324,2.735-2.816,5.213-5.565,5.535l0,0
	c-1.32,0.155-2.524-0.218-3.348-1.038l-19.926-19.82L295.191,250.18c-1.556,1.496-3.636,2.332-5.8,2.332h-99.798L86.946,354.614
	c-1.629,1.622-3.767,2.432-5.902,2.432c-2.136,0-4.273-0.811-5.902-2.432c-3.26-3.242-3.26-8.5,0-11.743l105.091-104.535
	c1.565-1.557,3.689-2.432,5.902-2.432h99.88L464.829,64.039l-20.969-20.857c-0.824-0.819-1.199-2.018-1.043-3.331
	c0.324-2.735,2.816-5.213,5.565-5.535l54.764-6.42C508.645,27.251,512.579,31.163,511.93,36.633z"/>
<g>
</g>
<g>
</g>
<g>
</g>
<g>
</g>
<g>
</g>
<g>
</g>
<g>
</g>
<g>
</g>
<g>
</g>
<g>
</g>
<g>
</g>
<g>
</g>
<g>
</g>
<g>
</g>
<g>
</g>
</svg>
